<svg aria-hidden="true" height="36.10037403" viewBox="0 0 641.32416 178.27345" width="129.8681424"
  xmlns="http://www.w3.org/2000/svg">
  <g transform="matrix(1.25 0 0 -1.25 .091648 177.27659)">
    <ellipse cx="70.870361" cy="-70.511894" fill="#000" rx="70.94368" ry="71.30938"
      transform="scale(1 -1)"></ellipse>
    <path
      d="m47.4352 11.3129.6429 1.5902c5.3239 14.4938 11.5571 28.3508 15.2266 36.1895-.3067 5.1828-.9344 9.9054-1.5629 13.5949-14.2969 3.532-24.4395 13.2977-24.4395 13.2977l4.07 6.005s13.8617-11.1554 30.3691-11.1554c16.507 0 30.3596 11.1515 30.3596 11.1515l4.075-6.0035s-10.1584-9.7828-24.4748-13.3043c-.6133-3.6308-1.2364-8.2551-1.5477-13.3293 3.6-7.6703 9.7567-21.3633 15.0781-35.764l.593-1.634c22.9174 9.7289 38.9874 32.4383 38.9874 58.9008 0 35.325-28.636 63.961-63.9608 63.961-35.3242 0-63.96253-28.636-63.96253-63.961 0-27.0614 16.80433-50.195 40.54653-59.5391z"
      fill="#fff"></path>
    <g fill="#000">
      <path
        d="m190.688 111.196 2 .127v9.94l-21.202-.124-14.082.125-.008-2.269c5.245-.175 6.459-.35 6.459-5.022v-26.7609c0-5.6426-.734-6.4535-6.459-6.4535v-2.282l15.45.1234 20.053-.1227c.712 3.2852 2.005 7.4915 2.977 10.1852l-2.149.3816c-2.579-6.2742-5.776-7.3113-12.284-7.6082h-3.566c-6.423 0-6.648 1.4024-6.648 8.0215v9.5742h6.92c5.277 0 7.055-.3566 7.055-5.7863h2.085l-.149 4.1246-.136 2.9221c0 2.085.171 6.056.309 7.423h-2.067c-.522-4.345-.895-5.501-5.398-5.501 0 0-7.962 0-8.619 0v16.091h8.864c6.924 0 9.648-1.831 10.595-7.109"></path>
      <path
        d="m198.346 104.349c2.601-.595 3.828-1.908 3.828-4.118v-17.4994c0-1.7535-.811-1.8222-2.814-1.8222h-1.543v-2.4367l7.49.1394 7.361-.1394-.008 2.4367h-1.545c-2.043 0-2.945.0726-2.945 1.8222v19.3454c2.312 1.515 5.415 2.698 7.304 2.698 3.098 0 5.719-1.229 5.719-5.573v-16.4704c0-1.7535-.811-1.8222-2.811-1.8222h-1.548v-2.4367l7.49.1394 7.361-.1394-.008 2.4367h-1.543c-2.042 0-2.947.0726-2.947 1.8222v17.0368c0 6.5736-3.377 9.6016-7.947 9.6016-4.031 0-7.196-2.115-11.07-4.625v3.925c0 .823-.63.746-.873.643-2.421-1.052-6.33-2.433-8.951-3.209z"></path>
      <path
        d="m459.53 104.349c2.602-.595 3.828-1.908 3.828-4.118v-17.4994c0-1.7535-.814-1.8222-2.814-1.8222h-1.543v-2.4367l7.49.1394 7.361-.1394-.007 2.4367h-1.546c-2.042 0-2.945.0726-2.945 1.8222v19.3454c2.309 1.515 5.416 2.698 7.304 2.698 3.099 0 5.72-1.229 5.72-5.573v-16.4704c0-1.7535-.814-1.8222-2.812-1.8222h-1.547v-2.4367l7.489.1394 7.361-.1394-.008 2.4367h-1.543c-2.045 0-2.947.0726-2.947 1.8222v17.0368c0 6.5736-3.378 9.6016-7.947 9.6016-4.03 0-7.195-2.115-11.07-4.625v3.925c0 .823-.633.746-.873.643-2.42-1.052-6.33-2.433-8.951-3.209z"></path>
      <path
        d="m340.984 104.349c2.602-.595 3.828-1.908 3.828-4.118v-17.4994c0-1.7535-.813-1.8222-2.814-1.8222h-1.543v-2.4367l7.487.1394 7.364-.1394-.01 2.4367h-1.543c-2.042 0-2.947.0726-2.947 1.8222v19.3454c2.312 1.515 5.415 2.698 7.304 2.698 3.101 0 5.722-1.229 5.722-5.573v-16.4704c0-1.7535-.813-1.8222-2.814-1.8222h-1.548v-2.4367l7.492.1394 7.358-.1394-.005 2.4367h-1.543c-2.044 0-2.947.0726-2.947 1.8222v17.0368c0 6.5736-3.378 9.6016-7.947 9.6016-4.03 0-7.195-2.115-11.072-4.625v3.925c0 .823-.631.746-.87.643-2.424-1.052-6.331-2.433-8.952-3.209z"></path>
      <path
        d="m262.828 105.95v2.436l-6.513-.139-5.48.141-.004-2.406c1.085.002 1.886-.058 2.462-.179.831-.175 1.202-.833 1.202-1.748 0-.914-.462-2.492-1.298-4.4874l-5.512-12.7426-5.647 14.167c-1.148 2.714-1.088 4.008.143 4.681.337.184 1.573.277 2.683.277v2.436l-7.749-.139-7.46.139-.005-2.436c2.512 0 3.491 0 5.479-4.854l9.73-23.6089h2.292l10.299 23.9319c1.209 2.819 2.233 4.531 5.378 4.531"></path>
      <path
        d="m264.964 106.571v-1.533c1.874-.552 3.434-1.848 3.434-4.409v-17.8974c0-1.7535-.813-1.8222-2.811-1.8222h-1.612v-2.4367l7.555.1394 7.292-.1406v2.4379h-1.481c-2.045 0-2.947.0726-2.947 1.8222v25.3574c0 1.313-.71 1.411-1.66.986-1.582-.712-5.263-1.82-7.77-2.504"></path>
      <path
        d="m267.805 118.686c0-1.914 1.712-3.657 3.591-3.657 1.95 0 3.596 1.675 3.596 3.657 0 1.946-1.612 3.529-3.596 3.529-1.879 0-3.591-1.681-3.591-3.529"></path>
      <path
        d="m282.635 104.024c2.27-.595 3.434-1.478 3.434-4.004v-17.2884c0-1.7535-.813-1.8222-2.813-1.8222h-2.142v-2.4356l8.219.1383 7.302-.0961 2.298-.0433v2.4367h-4.053c-2.003 0-2.816.0687-2.816 1.8222v15.5184c0 3.786 3.557 5.123 4.467 5.123 1.073 0 1.58-.368 2.116-.759.557-.405 1.133-.823 2.241-.823 1.941 0 3.462 1.636 3.462 3.723 0 2.66-2.409 3.856-4.12 3.856-2.809 0-6.211-2.451-8.229-5.524v4.626c0 1.021-.736 1.113-1.582.642-1.424-.791-5.499-2.768-7.77-3.634z"></path>
      <path
        d="m312.512 93.9574c0 6.0606 2.648 12.6676 9.072 12.6676 6.513 0 9.235-7.2187 9.235-13.7234 0-6.0629-2.668-12.6672-9.141-12.6672-6.468 0-9.166 7.216-9.166 13.723zm-6.79-.6578c0-10.0066 6.555-15.8125 16.02-15.8125 8.57 0 15.862 6.3684 15.862 16.0746 0 10.1533-6.426 15.8083-16.084 15.8083-8.679 0-15.798-6.215-15.798-16.0704"></path>
      <path
        d="m405.051 104.464c-1.041 3.14-3.531 4.906-7.154 4.906-4.586 0-7.554-2.115-10.991-4.563 0 0-.059-.044-.076-.055v3.337c0 1.157-.92 1.631-2.186.902-.304-.173-4.058-1.467-7.245-2.42v-1.533c2.01-.592 3.434-1.848 3.434-4.409v-17.8974c0-1.7535-.811-1.8222-2.813-1.8222h-1.744v-2.4395l7.688.1422 7.363-.1394-.007 2.4367h-1.546c-2.042 0-2.944.0726-2.944 1.8222v19.3484c1.822 1.247 5.185 3.012 7.435 3.012 3.778 0 5.39-2.323 5.39-7.767v-14.5934c0-1.7535-.81-1.8222-2.813-1.8222h-1.546v-2.4367l7.49.1394 7.422-.1394v2.4367h-1.545c-2.035 0-3.012.0769-3.012 1.8222v19.3484c1.823 1.247 5.186 3.012 7.436 3.012 3.778 0 5.388-2.323 5.388-7.767v-14.5934c0-1.7535-.814-1.8222-2.814-1.8222h-1.543v-2.4367l7.486.1394 7.167-.1406-.008 2.4379h-1.347c-2.043 0-2.945.0726-2.945 1.8222v16.97c0 6.0544-3.072 9.6684-8.214 9.6684-4.145 0-8.472-2.815-11.206-4.906"></path>
      <path
        d="m437.188 99.5332c.868 4.3738 3.481 7.0098 7.121 7.0098 3.271 0 5.385-2.245 5.385-5.719 0-.77-.467-1.2908-1.491-1.2908zm17.993-2.8289.868 1.0957c0 8.076-5.804 11.57-11.478 11.57-5.507 0-13.696-4.561-13.696-17.1286 0-5.1035 2.71-14.7543 12.969-14.7543 6.001 0 9.834 4.0649 12.502 7.6047l-1.462 1.3934c-2.989-2.9891-5.662-4.3223-8.661-4.3223-4.933 0-8.953 4.7672-9.355 11.0914-.064 1.1187-.098 1.9223-.098 2.5133 0 .4398.034.6875.069.9367z"></path>
      <path
        d="m262.059 47.3523c2.601-.5937 3.827-1.9043 3.827-4.1152v-17.5012c0-1.7507-.813-1.825-2.814-1.825h-1.542v-2.4328l7.489.1391 7.363-.1391-.008 2.4328h-1.545c-2.043 0-2.945.0743-2.945 1.825v19.3461c2.309 1.5137 5.415 2.6981 7.304 2.6981 3.098 0 5.719-1.2293 5.719-5.5762v-16.468c0-1.7507-.813-1.825-2.811-1.825h-1.548v-2.4328l7.49.1391 7.36-.1391-.006 2.4328h-1.543c-2.045 0-2.948.0743-2.948 1.825v17.0364c0 6.5722-3.378 9.6035-7.947 9.6035-4.03 0-7.195-2.116-11.07-4.6258v3.9234c0 .8246-.633.7473-.873.6438-2.422-1.0508-6.331-2.4336-8.952-3.2102z"></path>
      <path
        d="m240.032 42.5379c.868 4.3738 3.482 7.0098 7.122 7.0098 3.271 0 5.385-2.245 5.385-5.7168 0-.7715-.467-1.293-1.491-1.293zm17.994-2.827.868 1.093c0 8.0758-5.804 11.5719-11.478 11.5719-5.507 0-13.696-4.5645-13.696-17.1309 0-5.1027 2.71-14.7508 12.969-14.7508 6.001 0 9.833 4.0598 12.501 7.6l-1.461 1.395c-2.989-2.9871-5.662-4.3219-8.662-4.3219-4.933 0-8.953 4.7668-9.354 11.0918-.064 1.1172-.098 1.9242-.098 2.5129 0 .439.034.6859.069.939z"></path>
      <path
        d="m492.963 106.323.003-1.59h4.356v-20.7478c0-4.1899 2.354-6.4981 6.629-6.4981 3.076 0 6.033 1.5051 9.035 4.5992l-1.478 1.5082c-1.511-1.3152-2.74-1.8269-4.387-1.8269-.892 0-3.806.3734-3.806 5.1898v17.7756h9.526v3.645h-9.526v6.654h-1.448c-3.01-4.781-6.303-7.156-8.904-8.709"></path>
      <path
        d="m176.08 56.2977 6.844-16.2106h-13.053zm2.129 8.7609c-.895-1.2727-3.472-2.5481-4.342-2.8645.633-2.1757.235-3.5554-1.049-6.7468-.022-.0539-9.445-22.7832-9.445-22.7832-.653-1.6469-1.323-3.3532-2.136-4.9352-1.652-3.1859-2.641-3.8328-6.365-4.0301v-2.2207l8.325.1231 8.437-.1231-.005 2.25-2.425-.0402c-2.431.0992-3.806.332-3.806 2.4633 0 1.8008 1.017 4.6289 1.832 6.9039l1.417 3.8969h15.6l3.336-8.3379c.487-1.1332 1.065-2.725 1.001-3.293-.133-1.1582-1.147-1.593-3.41-1.593h-1.587v-2.25l10.353.1231 7.917-.1231-.005 2.25c-1.698 0-3.748.0641-5.039 1.4778-.86.9402-2.156 4.3082-3.128 6.741l-13.889 33.1117z"></path>
      <path
        d="m210.049 42.7773c0 3.452 2.025 7.1688 5.771 7.1688 4.231 0 6.13-4.1719 6.13-8.2961 0-3.5609-1.588-7.3691-6.048-7.3691-4.021 0-5.853 3.5601-5.853 8.4964zm-2.309-27.1453c0 5.8512 6.382 5.8512 10.605 5.8512 5.944 0 8.956-1.6773 8.956-4.9902 0-5.9399-8.088-7.23987-11.204-7.23987-3.855 0-8.357 1.67067-8.357 6.37887zm-2.777 14.6489c-.529-.6879-.841-1.8797-.841-2.6309 0-2.8941 2.557-4.782 5.208-5.752-3.734-.8511-7.126-3.3929-7.126-7.7199 0-4.58396 4.416-7.74919 12.84-7.74919 13.951 0 17.855 8.78829 17.855 12.71519 0 4.7969-3.111 7.3438-9.403 7.3438-1.655 0-6.981-.0047-9.115.0633-4.26.1488-4.263 2.0238-4.263 2.6859 0 1.4039.859 2.2059 1.724 2.9918 1.236-.2367 2.514-.3758 3.531-.3758 8.253 0 12.571 5.2969 12.571 10.5239 0 1.6863-.574 3.3035-1.464 4.6382 1.019-.0386 6.285-.2515 6.285-.2515v3.9511c-1.783-.2726-3.08-.3828-4.186-.3828-2.463 0-4.413.5606-6.11 1.0504-2.008.5785-4.411.9934-6.105.9934-7.719 0-12.707-4.1309-12.707-10.5281 0-3.8426 1.882-6.5676 5.949-8.8086z"></path>
      <path
        d="m322.173 29.1582c-2.647-2.057-4.795-3.1652-7.989-3.1613-7.833.0152-10.798 5.0941-10.821 12.6461-.017 5.1136 3.722 10.5531 8.403 10.5093 3.456-.0304 4.453-1.4589 5.605-3.0019.776-1.0332 1.508-2.0078 2.764-2.018 1.835-.0144 2.769 1.5918 2.747 3.1848-.037 2.9426-3.776 4.8469-9.373 4.9004-9.169.0898-16.077-7.2742-16.077-17.2547 0-8.2277 5.959-14.2809 13.401-14.2809 5.581 0 10.024 3.3282 12.937 6.834z"></path>
      <path
        d="m338.23 22.8969c-.217-.5778-1.583-4.1239-4.397-10.118-.806.618-1.518.8313-2.551.8313-2.018 0-3.526-1.9293-3.526-3.65903 0-2.0082 1.543-3.52226 3.59-3.52226 2.082 0 3.528 1.11797 4.554 3.51718l14.925 35.00191c1.193 2.7649 2.429 4.0606 5.247 4.0008v2.4485l-5.308-.1438-6.521.1391-.044-2.4356c.949 0 1.706-.0453 2.284-.2101.96-.2774 1.414-.8953 1.414-2.2063 0-.3855-.261-1.2508-.676-2.398l-5.539-13.5305-5.45 13.6984c-.549 1.375-1.041 2.6708-.961 3.2196.098.6828.513 1.048 1.307 1.2433.573.1414 1.345.1954 2.334.211l-.007 2.4082-6.302-.1391-8.017.1391v-2.4727c.45-.0195 1.093.0196 1.562-.0937 1.182-.2871 2.132-.9153 2.646-2.1321z"></path>
      <path
        d="m79.4563 80.6016c.1925.5906.3011 1.2222.3011 1.8879 0 3.2242-2.4824 5.8339-5.5484 5.8339-3.0563 0-5.5387-2.6097-5.5387-5.8339 0-3.2254 2.4824-5.8368 5.5387-5.8368l.5344.0274c-.4254-.1508-.8758-.2746-1.3407-.3613-4.8855-.9075-9.5492 2.5343-10.4144 7.6792-.8559 5.1489 2.4082 10.0547 7.2988 10.9633 4.8863.9063 9.55-2.5269 10.4102-7.6789.4054-2.4082-.0942-4.7683-1.241-6.6808z"></path>
      <path
        d="m117.886 68.0887c1.681 4.4 1.439 9.4961-1.098 13.9015-2.739 4.75-7.521 7.5907-12.605 8.0465.836 3.5211 1.137 6.7594-.297 10.2523-2.492 6.061-10.7266 8.9-16.3297 6.666 7.6406 5.421 17.6207 4.36 21.8987-3.411 1.31-2.378 1.933-5.6721 1.963-8.485 4.015-.9531 7.645-3.4977 9.871-7.3559 3.813-6.6054 2.22-14.8508-3.403-19.6144z"></path>
    </g>
    <path
      d="m87.9793 9.21094-.6402 1.61016c-4.5055 11.0519-15.5485 31.6848-15.5485 31.6848s-11.3441-21.1911-15.7207-32.1207l-.6656-1.61723c4.9477-1.22578 10.1207-1.87578 15.4469-1.87578 5.932 0 11.6758.80898 17.1281 2.31875z"
      fill="#fff"></path>
    <path
      d="m57.1328 107.771c-1.7109 2.694-4.6976 4.505-8.1297 4.563-5.4304.098-9.9054-4.229-9.9996-9.653-.0097-.542.025-1.068.0942-1.585 3.0113-.773 8.0113-4.08 8.2734-10.7003-2.725 3.6012-5.168 4.7285-9.3023 5.091-5.8997.5196-10.9536-4.6547-11.0477-10.4219-.0445-2.2453.6277-4.3343 1.8004-6.0535-2.7254-2.4254-4.4707-5.9418-4.5402-9.8797-.1286-7.4628 3.7242-12.7839 10.1625-13.9367 3.5363-.6226 9.3664.2035 12.7539 4.0024-3.0657-6.4297-8.5649-8.9375-14.1184-9.0024-9.1637-.1031-16.3645 8.0676-16.2059 17.2258.0891 4.9395 2.3243 9.3383 5.8059 12.3156-1.1723 2.1594-1.8199 4.6496-1.7754 7.2789.1285 7.3305 5.5828 13.3138 12.6055 14.3378-.0297.468-.0446.941-.0395 1.419.1531 8.484 7.1457 15.243 15.627 15.092 2.7445-.049 5.3066-.811 7.5066-2.107 2.6262 2.687 6.3059 4.323 10.3555 4.251 6.9387-.119 12.6207-5.219 13.7035-11.83-2.6508 3.372-6.7352 5.565-11.3543 5.645-4.9848.085-9.4406-2.31-12.1754-6.052z"
      fill="#000"></path>
  </g>
</svg>